<?xml version="1.0" encoding="utf-8"?>
<!-- Generator: Adobe Illustrator 23.0.4, SVG Export Plug-In . SVG Version: 6.00 Build 0)  -->
<svg version="1.1" id="Ebene_1" xmlns="http://www.w3.org/2000/svg" xmlns:xlink="http://www.w3.org/1999/xlink" x="0px" y="0px"
	 viewBox="0 0 48 48" style="enable-background:new 0 0 48 48;" xml:space="preserve">
<style type="text/css">
	.st0{fill:#133C7F;}
</style>
<g id="Grid">
</g>
<g id="Icon">
	<g>
		<circle class="st0" cx="24" cy="39" r="2"/>
		<path class="st0" d="M25,14h-2c-0.646,0-1.019,0.324-1,1l0.51,18.771C22.529,34.447,23.072,35,23.717,35h0.565
			c0.645,0,1.189-0.553,1.208-1.229L26,15C26.019,14.324,25.646,14,25,14z"/>
		<path class="st0" d="M45.786,43.103L25.793,3.105C25.424,2.367,24.712,1.998,24,1.998s-1.424,0.369-1.793,1.107L2.213,43.103
			c-0.665,1.33,0.303,2.896,1.79,2.896h39.994C45.484,45.998,46.451,44.433,45.786,43.103z M43.589,43.998l-39.18-0.002
			c-0.222,0-0.323-0.163-0.224-0.361l19.585-39.2c0,0,0.035-0.072,0.082-0.156c0.076-0.135,0.226-0.126,0.284-0.006
			c0.041,0.085,0.081,0.162,0.081,0.162l19.594,39.202C43.912,43.836,43.811,43.998,43.589,43.998z"/>
	</g>
</g>
</svg>
